<svg xmlns="http://www.w3.org/2000/svg" viewBox="0 0 1200 630" role="img" aria-label="Living Proof Labs">
  <defs>
    <linearGradient id="accent" x1="0" x2="1" y1="0" y2="1">
      <stop offset="0" stop-color="#22d3ee" />
      <stop offset="1" stop-color="#10b981" />
    </linearGradient>
  </defs>
  <rect width="1200" height="630" fill="#0f172a" />
  <g stroke="#1f2937" stroke-width="2">
    <path d="M0 90h1200M0 180h1200M0 270h1200M0 360h1200M0 450h1200M0 540h1200" />
    <path d="M100 0v630M200 0v630M300 0v630M400 0v630M500 0v630M600 0v630M700 0v630M800 0v630M900 0v630M1000 0v630M1100 0v630" />
  </g>
  <circle cx="950" cy="180" r="120" fill="none" stroke="url(#accent)" stroke-width="4" />
  <circle cx="950" cy="180" r="80" fill="none" stroke="#22d3ee" stroke-opacity="0.5" stroke-width="2" />
  <text x="120" y="270" fill="#e2e8f0" font-family="Inter, Helvetica, Arial, sans-serif" font-size="64" font-weight="600">
    Living Proof Labs
  </text>
  <text x="120" y="340" fill="url(#accent)" font-family="Inter, Helvetica, Arial, sans-serif" font-size="32">
    Verification for Robots in the Real World
  </text>
</svg>
